<svg xmlns="http://www.w3.org/2000/svg" viewBox="0 0 24 24" fill="currentColor"><path d="M12 .5C5.65.5.5 5.64.5 12c0 5.08 3.29 9.38 7.86 10.9.57.1.77-.25.77-.55v-2.01c-3.2.7-3.87-1.54-3.87-1.54-.52-1.31-1.28-1.66-1.28-1.66-1.05-.72.08-.71.08-.71 1.17.08 1.79 1.2 1.79 1.2 1.03 1.78 2.7 1.27 3.36.97.1-.74.4-1.27.73-1.56-2.55-.3-5.24-1.28-5.24-5.68 0-1.25.45-2.28 1.19-3.08-.12-.29-.52-1.45.11-3.02 0 0 .98-.31 3.2 1.18a11.1 11.1 0 012.92-.39c.99 0 2 .13 2.92.39 2.22-1.5 3.2-1.18 3.2-1.18.63 1.57.23 2.73.11 3.02.74.8 1.19 1.83 1.19 3.08 0 4.41-2.7 5.37-5.27 5.66.41.36.77 1.08.77 2.18v3.23c0 .3.2.66.78.55A11.5 11.5 0 0023.5 12C23.5 5.64 18.36.5 12 .5z"/></svg>